<?xml version="1.0" encoding="utf-8"?>
<!-- Generator: Adobe Illustrator 22.0.0, SVG Export Plug-In . SVG Version: 6.00 Build 0)  -->
<svg version="1.1" id="Laag_1" xmlns="http://www.w3.org/2000/svg" xmlns:xlink="http://www.w3.org/1999/xlink" x="0px" y="0px"
	 viewBox="0 0 908.7 908.7" style="enable-background:new 0 0 908.7 908.7;" xml:space="preserve">
<style type="text/css">
	.st0{fill:#FFFFFF;}
</style>
<g>
	<path d="M1464,2544H987.7c-118.6,0-215.7,97.1-215.7,215.7V3236c0,118.6,97.1,215.7,215.7,215.7H1464
		c118.6,0,215.7-97.1,215.7-215.7v-476.3C1679.7,2641.1,1582.6,2544,1464,2544z M1570.8,2929.8l-320.9,200.6
		c-14.5,9.1-33.6,9.1-48.1,0l-320.9-200.6c-11.3-7.3-18.1-19.5-18.1-32.7c0-30.4,33.1-48.6,59-32.7l304.1,190.2l304.1-190.2
		c25.9-15.9,59,2.3,59,32.7C1588.9,2910.2,1582.1,2922.5,1570.8,2929.8z"/>
</g>
<g>
	<path class="st0" d="M2181.3,0H1705c-118.6,0-215.7,97.1-215.7,215.7V692c0,118.6,97.1,215.7,215.7,215.7h476.3
		c118.6,0,215.7-97.1,215.7-215.7V215.7C2397,97.1,2299.9,0,2181.3,0z M2288.1,385.8l-320.9,200.6c-14.5,9.1-33.6,9.1-48.1,0
		l-320.9-200.6c-11.3-7.3-18.1-19.5-18.1-32.7c0-30.4,33.1-48.6,59-32.7l304.1,190.2l304.1-190.2c25.9-15.9,59,2.3,59,32.7
		C2306.2,366.2,2299.4,378.5,2288.1,385.8z"/>
</g>
<g>
	<path d="M-372.3,2155.8h-476.3c-118.6,0-215.7-97.1-215.7-215.7v-476.3c0-118.6,97.1-215.7,215.7-215.7h476.3
		c118.6,0,215.7,97.1,215.7,215.7v476.3C-156.7,2058.7-253.7,2155.8-372.3,2155.8z"/>
</g>
<g>
	<path d="M-124.9,3167.4h-476.3c-118.6,0-215.7-97.1-215.7-215.7v-476.3c0-118.6,97.1-215.7,215.7-215.7h476.3
		c118.6,0,215.7,97.1,215.7,215.7v476.3C90.8,3070.3-6.3,3167.4-124.9,3167.4z"/>
</g>
<g>
	<path d="M-298.1,907.7h-476.3c-118.6,0-215.7-97.1-215.7-215.7V215.7C-990.1,97.1-893,0-774.4,0h476.3
		C-179.5,0-82.4,97.1-82.4,215.7V692C-82.4,810.6-179.5,907.7-298.1,907.7z"/>
</g>
<g>
	<path class="st0" d="M692.5,0H216.2C97.6,0,0.5,97.1,0.5,215.7V692c0,118.6,97.1,215.7,215.7,215.7h476.3
		c118.6,0,215.7-97.1,215.7-215.7V215.7C908.2,97.1,811.1,0,692.5,0z M289.3,739.6H169V352.3h120.3V739.6z M229.2,299.3
		c-38.5,0-69.8-31.2-69.8-69.8c0-38.5,31.2-69.8,69.7-69.8c38.5,0,69.8,31.2,69.8,69.8C299,268.1,267.7,299.3,229.2,299.3z
		 M739.9,739.6H619.7V551.3c0-44.9-0.8-102.7-62.5-102.7c-62.6,0-72.2,49-72.2,99.5v191.6H364.8V352.3h115.4v52.9h1.6
		c23.5-40.3,67.3-64.3,113.9-62.6c121.8,0,144.3,80.2,144.3,184.5L739.9,739.6z"/>
</g>
<path d="M2306.2,1590.8h-726.1c-49.9,0-90.3,40.9-90.3,90.8l-0.4,544.6c0,49.9,40.8,90.8,90.8,90.8h726.1
	c49.9,0,90.8-40.8,90.8-90.8v-544.6C2397,1631.6,2356.2,1590.8,2306.2,1590.8z M2288.1,1783.6l-320.9,200.6
	c-14.5,9.1-33.6,9.1-48.1,0l-320.9-200.6c-11.3-7.3-18.1-19.5-18.1-32.7c0-30.4,33.1-48.6,59-32.7l304.1,190.2l304.1-190.2
	c25.9-15.9,59,2.3,59,32.7C2306.2,1764.1,2299.4,1776.4,2288.1,1783.6z"/>
<path d="M3022.5,1221.4c0,13.2-6.8,25.4-18.2,32.7l-320.9,200.6c-14.5,9.1-33.6,9.1-48.1,0l-320.9-200.6
	c-11.4-7.3-18.2-19.5-18.2-32.7c0-30.4,33.1-48.6,59-32.7l304.1,190.2l304.1-190.2C2989.3,1172.8,3022.5,1191,3022.5,1221.4z"/>
<g>
	<path class="st0" d="M3153.3,81.8c121.2,0,135.5,0.5,183.4,2.6c44.2,2,68.3,9.4,84.3,15.6c21.2,8.2,36.3,18.1,52.2,33.9
		c15.9,15.9,25.7,31,33.9,52.2c6.2,16,13.6,40,15.6,84.3c2.2,47.9,2.6,62.2,2.6,183.4s-0.5,135.5-2.6,183.4
		c-2,44.2-9.4,68.3-15.6,84.3c-8.2,21.2-18.1,36.3-33.9,52.2c-15.9,15.9-31,25.7-52.2,33.9c-16,6.2-40,13.6-84.3,15.6
		c-47.8,2.2-62.2,2.6-183.4,2.6s-135.5-0.5-183.4-2.6c-44.2-2-68.3-9.4-84.3-15.6c-21.2-8.2-36.3-18.1-52.2-33.9
		c-15.9-15.9-25.7-31-33.9-52.2c-6.2-16-13.6-40-15.6-84.3c-2.2-47.9-2.6-62.2-2.6-183.4s0.5-135.5,2.6-183.4
		c2-44.2,9.4-68.3,15.6-84.3c8.2-21.2,18.1-36.3,33.9-52.2c15.9-15.9,31-25.7,52.2-33.9c16-6.2,40-13.6,84.3-15.6
		C3017.8,82.2,3032.1,81.8,3153.3,81.8 M3153.3,0c-123.3,0-138.7,0.5-187.1,2.7c-48.3,2.2-81.3,9.9-110.2,21.1
		c-29.8,11.6-55.2,27.1-80.4,52.3c-25.2,25.2-40.7,50.5-52.3,80.4c-11.2,28.9-18.9,61.9-21.1,110.2c-2.2,48.4-2.7,63.9-2.7,187.1
		c0,123.3,0.5,138.7,2.7,187.1c2.2,48.3,9.9,81.3,21.1,110.2c11.6,29.8,27.1,55.2,52.3,80.4c25.2,25.2,50.5,40.7,80.4,52.3
		c28.9,11.2,61.9,18.9,110.2,21.1c48.4,2.2,63.9,2.7,187.1,2.7s138.7-0.5,187.1-2.7c48.3-2.2,81.3-9.9,110.2-21.1
		c29.8-11.6,55.2-27.1,80.4-52.3c25.2-25.2,40.7-50.5,52.3-80.4c11.2-28.9,18.9-61.9,21.1-110.2c2.2-48.4,2.7-63.9,2.7-187.1
		s-0.5-138.7-2.7-187.1c-2.2-48.3-9.9-81.3-21.1-110.2c-11.6-29.8-27.1-55.2-52.3-80.4c-25.2-25.2-50.5-40.7-80.4-52.3
		c-28.9-11.2-61.9-18.9-110.2-21.1C3292,0.5,3276.5,0,3153.3,0L3153.3,0z"/>
	<path class="st0" d="M3153.3,220.8c-128.7,0-233,104.3-233,233.1s104.3,233.1,233,233.1s233-104.3,233-233.1
		S3282,220.8,3153.3,220.8z M3153.3,605.1c-83.5,0-151.3-67.7-151.3-151.3c0-83.5,67.7-151.3,151.3-151.3s151.3,67.7,151.3,151.3
		C3304.6,537.4,3236.8,605.1,3153.3,605.1z"/>
	<circle class="st0" cx="3395.6" cy="211.6" r="54.5"/>
</g>
</svg>
