<?xml version="1.0" encoding="utf-8"?>
<!-- Generator: Adobe Illustrator 22.0.0, SVG Export Plug-In . SVG Version: 6.00 Build 0)  -->
<svg version="1.1" id="Laag_1" xmlns="http://www.w3.org/2000/svg" xmlns:xlink="http://www.w3.org/1999/xlink" x="0px" y="0px"
	 viewBox="0 0 586.2 586" style="enable-background:new 0 0 586.2 586;" xml:space="preserve">
<style type="text/css">
	.st0{display:none;opacity:0.5;enable-background:new    ;}
	.st1{display:none;opacity:0.5;fill:none;stroke:#000000;stroke-miterlimit:10;enable-background:new    ;}
	.st2{display:none;}
	.st3{display:inline;}
	.st4{display:none;opacity:0.5;}
	.st5{display:none;fill:#C62828;}
</style>
<circle class="st0" cx="293" cy="293" r="188.8"/>
<circle class="st0" cx="293" cy="293" r="188.8"/>
<line class="st1" x1="469.2" y1="225.5" x2="116.8" y2="360.6"/>
<g class="st2">
	<path class="st3" d="M167.6,433.8c-21-15.5-42.3-44.8-50.8-73.2l55.5-21.3c4.4,16.7,18.6,36.7,29.1,46.7
		c10.5,9.9,23.7,14.9,39.5,14.9c13.2,0,24.4-3.3,33.8-9.9s14-15.7,14-27.4c0-11.7-4.5-21.3-13.4-28.7c-8.9-7.5-24.8-15.4-47.6-23.9
		l-19.3-7c-20.2-7-37.4-17.8-51.7-32.2c-14.3-14.5-21.5-32.7-21.5-54.6c0-16.4,4.2-31.3,12.7-44.7s20.5-24,36-31.8
		c15.5-7.7,33-11.6,52.6-11.6c28.4,0,50.7,6.7,67.1,20s27.6,28.9,33.8,46.7l-52.2,21.9c-3.2-9.6-8.8-17.8-16.9-24.3
		c-8-6.6-18.3-9.9-30.9-9.9c-12.9,0-23.5,3-31.8,9s-12.5,13.8-12.5,23.5c0,9.4,3.9,17.3,11.8,23.9c7.9,6.6,20.9,12.9,39,19.1
		l19.7,6.6c27.2,9.4,48,21.7,62.5,37.1c14.5,15.3,21.7,35.4,21.7,60.3c0,20.5-5.3,37.8-15.8,52s-24,24.8-40.6,31.8
		c-16.5,7-33.5,10.5-51.1,10.5C212.9,457,188.6,449.3,167.6,433.8z"/>
</g>
<g class="st4">
	<path class="st3" d="M293,173.7c31.9,0,61.8,12.4,84.3,34.9s34.9,52.5,34.9,84.3s-12.4,61.8-34.9,84.3s-52.5,34.9-84.3,34.9
		s-61.8-12.4-84.3-34.9s-34.9-52.5-34.9-84.3s12.4-61.8,34.9-84.3C231.2,186.2,261.1,173.7,293,173.7 M293,104.2
		c-104.3,0-188.8,84.5-188.8,188.8S188.7,481.8,293,481.8S481.8,397.3,481.8,293S397.3,104.2,293,104.2L293,104.2z"/>
</g>
<g>
	<path d="M486.9,73.3c-16.8-14.9-35.4-27.8-55.3-38.5C390.3,12.6,343.1,0,293,0C131.2,0,0,131.2,0,293s131.2,293,293,293
		c18.7,0,37-1.8,54.8-5.1c11.9-2.2,23.5-5.2,34.8-8.8c24.8-7.9,48.1-19.1,69.6-33v-89.2V191.5c-7.3-11.5-15.9-22.1-25.7-31.9
		c-13.1-13.1-27.8-24.1-43.9-32.7v370.9c-0.9,0.4-1.7,0.8-2.6,1.1c-10.5,4.4-21.2,8-32.2,10.8c-17.8,4.5-36.1,6.7-54.8,6.7
		c-30.2,0-59.5-5.9-87-17.5c-26.6-11.3-50.5-27.4-71.1-47.9c-20.5-20.5-36.7-44.4-47.9-71.1c-11.6-27.5-17.5-56.8-17.5-87
		s5.9-59.5,17.5-87c11.3-26.6,27.4-50.5,47.9-71.1c20.5-20.5,44.4-36.7,71.1-47.9c27.5-11.6,56.8-17.5,87-17.5
		c18.7,0,37,2.3,54.8,6.7c11,2.8,21.7,6.4,32.2,10.8c0.9,0.4,1.7,0.7,2.6,1.1l0,0l0,0c24,10.5,45.7,25,64.7,43.1
		c0.1,0.1,0.3,0.3,0.4,0.4c1.1,1.1,2.3,2.2,3.4,3.3c0.2,0.2,0.4,0.4,0.7,0.7c0.1,0.2,0.3,0.3,0.4,0.5c13.6,13.8,25.2,29.1,34.8,45.7
		c4.5,7.8,8.5,15.9,12,24.2c11.6,27.5,17.5,56.8,17.5,87s-5.9,59.5-17.5,87c-3.5,8.4-7.5,16.4-12,24.2v108.5
		c60.8-53.7,99.1-132.2,99.1-219.7S547.7,127,486.9,73.3z"/>
	<path d="M325.8,297.9c-14.3-15.2-35.1-27.5-61.8-36.7l-18.8-6.3c-16.6-5.6-28.6-11.4-35.6-17.3c-6.3-5.3-9.4-11.4-9.4-18.8
		c0-7.5,3.2-13.4,9.7-18.1c7-5,16.2-7.6,27.3-7.6c10.8,0,19.4,2.7,26.2,8.2c6.9,5.7,11.7,12.5,14.5,20.8l1.8,5.4l59.5-25l-1.6-4.6
		c-6.2-17.9-17.5-33.7-33.9-46.9c-16.5-13.4-39.2-20.2-67.3-20.2c-19.4,0-37.1,3.9-52.6,11.6c-15.6,7.8-27.8,18.6-36.4,32.2
		c-8.6,13.6-12.9,28.9-12.9,45.5c0,22.3,7.4,41,22,55.8c14.2,14.3,31.4,25.1,51.3,32l18.4,6.7c21.1,7.8,35.9,15.2,43.9,21.9
		c7.3,6.1,10.9,13.8,10.9,23.4c0,9.4-3.6,16.6-11.2,21.9c-8,5.6-17.8,8.5-29.2,8.5c-13.8,0-24.9-4.2-34.1-12.8
		c-10-9.4-22.5-27.7-26.3-42l-1.5-5.7l-62.9,24.1l1.4,4.7c8.1,27.2,28.4,56.4,50.4,72.6l0,0c20.9,15.4,45.3,23.2,72.6,23.2
		c17.4,0,34.5-3.5,50.8-10.5c16.6-7,30.3-17.8,40.9-32c10.7-14.4,16.1-32.1,16.1-52.7C347.9,334,340.5,313.5,325.8,297.9z"/>
</g>
<rect x="347.8" y="107.5" class="st5" width="34.8" height="389.7"/>
</svg>
